<svg id="Capa_1" data-name="Capa 1" xmlns="http://www.w3.org/2000/svg" xmlns:xlink="http://www.w3.org/1999/xlink" viewBox="0 0 286.86 273.47"><defs><style>.cls-1{mask:url(#mask);}.cls-2,.cls-4{mix-blend-mode:multiply;}.cls-2{fill:url(#linear-gradient);}.cls-3{mask:url(#mask-2);}.cls-4{fill:url(#radial-gradient);}.cls-5{fill:url(#linear-gradient-2);}.cls-6{mask:url(#mask-3);}.cls-7{opacity:0.5;fill:url(#linear-gradient-3);}.cls-8{mask:url(#mask-4);}.cls-9{opacity:0.6;fill:url(#radial-gradient-2);}.cls-10{filter:url(#luminosity-noclip-4);}.cls-11{filter:url(#luminosity-noclip-3);}.cls-12{filter:url(#luminosity-noclip-2);}.cls-13{filter:url(#luminosity-noclip);}</style><filter id="luminosity-noclip" x="43.2" y="-8327.79" width="165.47" height="32766" filterUnits="userSpaceOnUse" color-interpolation-filters="sRGB"><feFlood flood-color="#fff" result="bg"/><feBlend in="SourceGraphic" in2="bg"/></filter><mask id="mask" x="43.2" y="-8327.79" width="165.47" height="32766" maskUnits="userSpaceOnUse"><g class="cls-13"/></mask><linearGradient id="linear-gradient" x1="173.16" y1="119.05" x2="101.72" y2="247.49" gradientUnits="userSpaceOnUse"><stop offset="0" stop-color="#fff"/><stop offset="0.17" stop-color="#c6c6c6"/><stop offset="0.4" stop-color="gray"/><stop offset="0.6" stop-color="#494949"/><stop offset="0.78" stop-color="#212121"/><stop offset="0.92" stop-color="#090909"/><stop offset="1"/></linearGradient><filter id="luminosity-noclip-2" x="49.41" y="-8327.79" width="207.57" height="32766" filterUnits="userSpaceOnUse" color-interpolation-filters="sRGB"><feFlood flood-color="#fff" result="bg"/><feBlend in="SourceGraphic" in2="bg"/></filter><mask id="mask-2" x="49.41" y="-8327.79" width="207.57" height="32766" maskUnits="userSpaceOnUse"><g class="cls-12"/></mask><radialGradient id="radial-gradient" cx="149.24" cy="60.16" r="78.72" gradientUnits="userSpaceOnUse"><stop offset="0" stop-color="#fff"/><stop offset="1"/></radialGradient><linearGradient id="linear-gradient-2" x1="73.18" y1="80.4" x2="209.97" y2="312.96" gradientUnits="userSpaceOnUse"><stop offset="0" stop-color="#009bdb"/><stop offset="1" stop-color="#001d7e"/></linearGradient><filter id="luminosity-noclip-3" x="43.2" y="89.14" width="165.47" height="196.7" filterUnits="userSpaceOnUse" color-interpolation-filters="sRGB"><feFlood flood-color="#fff" result="bg"/><feBlend in="SourceGraphic" in2="bg"/></filter><mask id="mask-3" x="33.31" y="72.71" width="165.47" height="196.7" maskUnits="userSpaceOnUse"><g class="cls-11"><g transform="translate(-9.9 -16.43)"><g class="cls-1"><path class="cls-2" d="M43.2,276.23c17.54,10,39,12.82,58.31,5.51,16.75-6.36,29-17.74,38-33l69.13-117L184.13,89.14l-71,120.19c-3.94,6.67-7.85,13.35-11.81,20A29.61,29.61,0,0,1,90.78,240c-5.23,3-11.37,3.56-17.25,2.62a27.47,27.47,0,0,1-9.15-3.3"/></g></g></g></mask><linearGradient id="linear-gradient-3" x1="173.16" y1="119.05" x2="101.72" y2="247.49" gradientUnits="userSpaceOnUse"><stop offset="0"/><stop offset="1"/></linearGradient><filter id="luminosity-noclip-4" x="49.41" y="16.43" width="207.57" height="113.29" filterUnits="userSpaceOnUse" color-interpolation-filters="sRGB"><feFlood flood-color="#fff" result="bg"/><feBlend in="SourceGraphic" in2="bg"/></filter><mask id="mask-4" x="39.51" y="0" width="207.57" height="113.29" maskUnits="userSpaceOnUse"><g class="cls-10"><g transform="translate(-9.9 -16.43)"><g class="cls-3"><path class="cls-4" d="M98.47,129.72c11.33-19.77,22.74-39.49,34.41-59a23.86,23.86,0,0,1,20.45-12,23.46,23.46,0,0,1,13.8,4.51c4.86,3.57,7.17,8.91,10.09,14l30.33,52.57H257q-23.22-40.31-46.55-80.55C196,24.9,169.25,13,141.61,17.27,121.48,20.35,105,33.59,94.92,50.91q-8.1,14-16.15,28L49.41,129.72Z"/></g></g></g></mask><radialGradient id="radial-gradient-2" cx="149.24" cy="60.16" r="78.72" gradientUnits="userSpaceOnUse"><stop offset="0" stop-color="#fff"/><stop offset="1" stop-color="#fff"/></radialGradient></defs><path class="cls-5" d="M226.82,163.11,241,187.83c6.62,11.56,16.08,23,12.48,37.15a30.26,30.26,0,0,1-26.55,22.09c-7.12.48-13.63-2.13-19.32-6.26L192.77,230c-9.06-6.61-24.22-1.82-29.24,7.67-6.84,13,.3,23.63,10.63,31.43,15.07,11.39,30.68,20.35,50.05,20.79,26.57.6,53.32-15.74,65-39.63,11-22.47,9.89-47.28-2.5-69-4.78-8.36-9.63-16.67-14.45-25Q241.5,102.63,210.43,49.17C196,24.9,169.25,13,141.61,17.27,121.48,20.35,105,33.59,94.92,50.91q-8.1,14-16.15,28l-49.2,85.22c-4.06,7-8.51,14-12.1,21.28C3.9,213,8.29,249,32.91,269.18c18.86,15.45,45.36,21.38,68.6,12.56,16.75-6.36,29-17.74,38-33l69.13-117L184.13,89.14l-71,120.19c-3.94,6.67-7.85,13.35-11.81,20A29.61,29.61,0,0,1,90.78,240c-5.23,3-11.37,3.56-17.25,2.62a27.05,27.05,0,0,1-12.32-5.46,24.91,24.91,0,0,1-8.67-15.86c-1.16-8.75,2.49-15.84,6.72-23.16,24.53-42.49,48.48-85.37,73.62-127.51a23.86,23.86,0,0,1,20.45-12,23.46,23.46,0,0,1,13.8,4.51c4.86,3.57,7.17,8.91,10.09,14Z" transform="translate(-9.9 -16.43)"/><g class="cls-6"><path class="cls-7" d="M43.2,276.23c17.54,10,39,12.82,58.31,5.51,16.75-6.36,29-17.74,38-33l69.13-117L184.13,89.14l-71,120.19c-3.94,6.67-7.85,13.35-11.81,20A29.61,29.61,0,0,1,90.78,240c-5.23,3-11.37,3.56-17.25,2.62a27.47,27.47,0,0,1-9.15-3.3" transform="translate(-9.9 -16.43)"/></g><g class="cls-8"><path class="cls-9" d="M98.47,129.72c11.33-19.77,22.74-39.49,34.41-59a23.86,23.86,0,0,1,20.45-12,23.46,23.46,0,0,1,13.8,4.51c4.86,3.57,7.17,8.91,10.09,14l30.33,52.57H257q-23.22-40.31-46.55-80.55C196,24.9,169.25,13,141.61,17.27,121.48,20.35,105,33.59,94.92,50.91q-8.1,14-16.15,28L49.41,129.72Z" transform="translate(-9.9 -16.43)"/></g></svg>