<svg id="Capa_1" data-name="Capa 1" xmlns="http://www.w3.org/2000/svg" xmlns:xlink="http://www.w3.org/1999/xlink" viewBox="0 0 1114.69 277.69"><defs><style>.cls-1{mask:url(#mask);}.cls-2,.cls-4{mix-blend-mode:multiply;}.cls-2{fill:url(#linear-gradient);}.cls-3{mask:url(#mask-2);}.cls-4{fill:url(#radial-gradient);}.cls-5{fill:#003078;}.cls-6{fill:url(#linear-gradient-2);}.cls-7{mask:url(#mask-3);}.cls-8{opacity:0.5;fill:url(#linear-gradient-3);}.cls-9{mask:url(#mask-4);}.cls-10{opacity:0.6;fill:url(#radial-gradient-2);}.cls-11{fill:#656563;}.cls-12{filter:url(#luminosity-noclip-4);}.cls-13{filter:url(#luminosity-noclip-3);}.cls-14{filter:url(#luminosity-noclip-2);}.cls-15{filter:url(#luminosity-noclip);}</style><filter id="luminosity-noclip" x="43.2" y="-8327.79" width="165.47" height="32766" filterUnits="userSpaceOnUse" color-interpolation-filters="sRGB"><feFlood flood-color="#fff" result="bg"/><feBlend in="SourceGraphic" in2="bg"/></filter><mask id="mask" x="43.2" y="-8327.79" width="165.47" height="32766" maskUnits="userSpaceOnUse"><g class="cls-15"/></mask><linearGradient id="linear-gradient" x1="173.16" y1="119.05" x2="101.72" y2="247.49" gradientUnits="userSpaceOnUse"><stop offset="0" stop-color="#fff"/><stop offset="0.17" stop-color="#c6c6c6"/><stop offset="0.4" stop-color="gray"/><stop offset="0.6" stop-color="#494949"/><stop offset="0.78" stop-color="#212121"/><stop offset="0.92" stop-color="#090909"/><stop offset="1"/></linearGradient><filter id="luminosity-noclip-2" x="49.41" y="-8327.79" width="207.57" height="32766" filterUnits="userSpaceOnUse" color-interpolation-filters="sRGB"><feFlood flood-color="#fff" result="bg"/><feBlend in="SourceGraphic" in2="bg"/></filter><mask id="mask-2" x="49.41" y="-8327.79" width="207.57" height="32766" maskUnits="userSpaceOnUse"><g class="cls-14"/></mask><radialGradient id="radial-gradient" cx="149.24" cy="60.16" r="78.72" gradientUnits="userSpaceOnUse"><stop offset="0" stop-color="#fff"/><stop offset="1"/></radialGradient><linearGradient id="linear-gradient-2" x1="73.18" y1="80.4" x2="209.97" y2="312.96" gradientUnits="userSpaceOnUse"><stop offset="0" stop-color="#009bdb"/><stop offset="1" stop-color="#001d7e"/></linearGradient><filter id="luminosity-noclip-3" x="43.2" y="89.14" width="165.47" height="196.7" filterUnits="userSpaceOnUse" color-interpolation-filters="sRGB"><feFlood flood-color="#fff" result="bg"/><feBlend in="SourceGraphic" in2="bg"/></filter><mask id="mask-3" x="33.31" y="72.71" width="165.47" height="196.7" maskUnits="userSpaceOnUse"><g class="cls-13"><g transform="translate(-9.9 -16.43)"><g class="cls-1"><path class="cls-2" d="M43.2,276.23c17.54,10,39,12.82,58.31,5.51,16.75-6.36,29-17.74,38-33l69.13-117L184.13,89.14l-71,120.19c-3.94,6.67-7.85,13.35-11.81,20A29.61,29.61,0,0,1,90.78,240c-5.23,3-11.37,3.56-17.25,2.62a27.47,27.47,0,0,1-9.15-3.3"/></g></g></g></mask><linearGradient id="linear-gradient-3" x1="173.16" y1="119.05" x2="101.72" y2="247.49" gradientUnits="userSpaceOnUse"><stop offset="0"/><stop offset="1"/></linearGradient><filter id="luminosity-noclip-4" x="49.41" y="16.43" width="207.57" height="113.29" filterUnits="userSpaceOnUse" color-interpolation-filters="sRGB"><feFlood flood-color="#fff" result="bg"/><feBlend in="SourceGraphic" in2="bg"/></filter><mask id="mask-4" x="39.51" y="0" width="207.57" height="113.29" maskUnits="userSpaceOnUse"><g class="cls-12"><g transform="translate(-9.9 -16.43)"><g class="cls-3"><path class="cls-4" d="M98.47,129.72c11.33-19.77,22.74-39.49,34.41-59a23.86,23.86,0,0,1,20.45-12,23.46,23.46,0,0,1,13.8,4.51c4.86,3.57,7.17,8.91,10.09,14l30.33,52.57H257q-23.22-40.31-46.55-80.55C196,24.9,169.25,13,141.61,17.27,121.48,20.35,105,33.59,94.92,50.91q-8.1,14-16.15,28L49.41,129.72Z"/></g></g></g></mask><radialGradient id="radial-gradient-2" cx="149.24" cy="60.16" r="78.72" gradientUnits="userSpaceOnUse"><stop offset="0" stop-color="#fff"/><stop offset="1" stop-color="#fff"/></radialGradient></defs><path class="cls-5" d="M439.42,85.41a14,14,0,0,1,10.29,4.07A14.24,14.24,0,0,1,453.78,100V201.2a14.35,14.35,0,0,1-4.07,10.41,14.74,14.74,0,0,1-20.57,0,14.31,14.31,0,0,1-4.07-10.41V189.48l5.26,2.15q0,3.12-3.35,7.54a45.44,45.44,0,0,1-9.09,8.73,55.93,55.93,0,0,1-13.52,7.3,46.62,46.62,0,0,1-16.86,3,54.64,54.64,0,0,1-29.91-8.5,59.68,59.68,0,0,1-21.17-23.44q-7.77-15-7.77-34.33,0-19.62,7.77-34.57A60.44,60.44,0,0,1,357.36,93.9a52.71,52.71,0,0,1,29.19-8.49,55.35,55.35,0,0,1,18.9,3.11,56.58,56.58,0,0,1,14.95,7.9,45.31,45.31,0,0,1,9.81,9.68c2.31,3.27,3.47,6,3.47,8.26l-8.61,3.11V100a14.31,14.31,0,0,1,4.07-10.4A13.72,13.72,0,0,1,439.42,85.41ZM391.1,191.87a32.42,32.42,0,0,0,18.42-5.26,35.52,35.52,0,0,0,12.32-14.36,45.82,45.82,0,0,0,4.43-20.33,46.45,46.45,0,0,0-4.43-20.58A35.56,35.56,0,0,0,409.52,117a32.42,32.42,0,0,0-18.42-5.26A32,32,0,0,0,372.92,117a35.41,35.41,0,0,0-12.32,14.35,46.31,46.31,0,0,0-4.43,20.58,45.68,45.68,0,0,0,4.43,20.33,35.37,35.37,0,0,0,12.32,14.36A32,32,0,0,0,391.1,191.87Z" transform="translate(-9.9 -16.43)"/><path class="cls-5" d="M486.31,90.19H543a13.09,13.09,0,0,1,13.4,13.4,12.31,12.31,0,0,1-3.83,9.21,13.17,13.17,0,0,1-9.57,3.71h-56.7a13.09,13.09,0,0,1-13.4-13.4,12.34,12.34,0,0,1,3.83-9.21A13.21,13.21,0,0,1,486.31,90.19Zm25.6-29.9a13.35,13.35,0,0,1,10.16,4.19A14.54,14.54,0,0,1,526,74.88V181.34a10.41,10.41,0,0,0,1.32,5.51,7.54,7.54,0,0,0,3.59,3.11,12.41,12.41,0,0,0,4.9.95,12.78,12.78,0,0,0,5.26-1.07,13.28,13.28,0,0,1,5.51-1.08,8.08,8.08,0,0,1,6.1,3.11c1.83,2.07,2.75,4.95,2.75,8.61q0,6.71-7.3,11a30.33,30.33,0,0,1-15.67,4.3,81.86,81.86,0,0,1-11.12-.83,30.16,30.16,0,0,1-11.49-4.07,25,25,0,0,1-9-9.93q-3.58-6.69-3.59-18.42V74.88a14.32,14.32,0,0,1,14.6-14.59Z" transform="translate(-9.9 -16.43)"/><path class="cls-5" d="M640.62,218.19q-20.34,0-35.29-8.5a58.66,58.66,0,0,1-23-23.08q-8-14.6-8-33,0-21.53,8.73-36.72a61.8,61.8,0,0,1,22.85-23.33,59,59,0,0,1,29.9-8.13,54.43,54.43,0,0,1,23.09,5,63.22,63.22,0,0,1,19.26,13.76,66.88,66.88,0,0,1,13.28,20.22,61.58,61.58,0,0,1,4.9,24.4,12.28,12.28,0,0,1-4.54,9.33,15.27,15.27,0,0,1-10.05,3.59H590.38L583.2,137.8H671l-5.26,4.79v-6.46a21.83,21.83,0,0,0-4.91-12.44,32,32,0,0,0-11-8.73,31.27,31.27,0,0,0-14-3.23,45.47,45.47,0,0,0-13.39,1.91,25.7,25.7,0,0,0-10.77,6.46,31.44,31.44,0,0,0-7.18,12.2q-2.62,7.66-2.63,19.38,0,12.91,5.39,21.89a36.8,36.8,0,0,0,31.93,18.3,55.49,55.49,0,0,0,14.12-1.44,31.75,31.75,0,0,0,8.49-3.46c2.15-1.36,4.11-2.52,5.86-3.47a18.2,18.2,0,0,1,8.14-2.16,12.05,12.05,0,0,1,12.2,12q0,6.45-6.7,11.72-6.22,5.26-17.47,9.21A69.56,69.56,0,0,1,640.62,218.19Z" transform="translate(-9.9 -16.43)"/><path class="cls-5" d="M788.7,85.41q17.7,0,26.92,7.42a37.78,37.78,0,0,1,12.68,19.73,101.15,101.15,0,0,1,3.46,27.4V201.2a14.35,14.35,0,0,1-4.06,10.41,14.76,14.76,0,0,1-20.58,0,14.35,14.35,0,0,1-4.06-10.41V140a46.37,46.37,0,0,0-2-14.24,19.73,19.73,0,0,0-7.29-10.17q-5.26-3.83-15.08-3.82-9.57,0-16.14,3.82a26.24,26.24,0,0,0-10,10.17A29.09,29.09,0,0,0,749,140V201.2a14.35,14.35,0,0,1-4.07,10.41,14.74,14.74,0,0,1-20.57,0,14.31,14.31,0,0,1-4.07-10.41V102.4A14.31,14.31,0,0,1,724.35,92a14.72,14.72,0,0,1,20.57,0A14.35,14.35,0,0,1,749,102.4v10.28L745.4,112a47.67,47.67,0,0,1,6.22-8.74,60,60,0,0,1,9.57-8.73,48.8,48.8,0,0,1,12.44-6.58A44,44,0,0,1,788.7,85.41Z" transform="translate(-9.9 -16.43)"/><path class="cls-5" d="M922,218.19q-20.33,0-35.28-8.5a58.59,58.59,0,0,1-23-23.08q-8-14.6-8-33,0-21.53,8.73-36.72a61.73,61.73,0,0,1,22.85-23.33,58.94,58.94,0,0,1,29.9-8.13,54.46,54.46,0,0,1,23.09,5,63.18,63.18,0,0,1,19.25,13.76,66.69,66.69,0,0,1,13.28,20.22,61.42,61.42,0,0,1,4.91,24.4,12.29,12.29,0,0,1-4.55,9.33,15.23,15.23,0,0,1-10,3.59H871.72l-7.18-23.93h87.8l-5.27,4.79v-6.46a21.81,21.81,0,0,0-4.9-12.44,31.94,31.94,0,0,0-11-8.73,31.22,31.22,0,0,0-14-3.23,45.59,45.59,0,0,0-13.4,1.91A25.61,25.61,0,0,0,893,120.1a31.32,31.32,0,0,0-7.18,12.2q-2.64,7.66-2.63,19.38,0,12.91,5.38,21.89a36.83,36.83,0,0,0,31.94,18.3,55.4,55.4,0,0,0,14.11-1.44,31.83,31.83,0,0,0,8.5-3.46q3.23-2,5.86-3.47a18.19,18.19,0,0,1,8.13-2.16,12.05,12.05,0,0,1,12.2,12q0,6.45-6.7,11.72-6.21,5.26-17.46,9.21A69.62,69.62,0,0,1,922,218.19Z" transform="translate(-9.9 -16.43)"/><path class="cls-5" d="M1124.58,151.92q0,19.62-8.73,34.57a62.67,62.67,0,0,1-23.44,23.32,68.75,68.75,0,0,1-65.79,0,62.63,62.63,0,0,1-23.45-23.32q-8.73-15-8.73-34.57t8.73-34.57a63.64,63.64,0,0,1,23.45-23.45,68,68,0,0,1,65.79,0,63.69,63.69,0,0,1,23.44,23.45Q1124.58,132.31,1124.58,151.92Zm-28.71,0q0-12.21-4.9-21.17a36.41,36.41,0,0,0-13.16-14,35.87,35.87,0,0,0-36.6,0,36.48,36.48,0,0,0-13.16,14q-4.9,9-4.9,21.17a42.93,42.93,0,0,0,4.9,20.93,36.55,36.55,0,0,0,13.16,14,35.87,35.87,0,0,0,36.6,0,36.48,36.48,0,0,0,13.16-14A42.93,42.93,0,0,0,1095.87,151.92Z" transform="translate(-9.9 -16.43)"/><path class="cls-6" d="M226.82,163.11,241,187.83c6.62,11.56,16.08,23,12.48,37.15a30.26,30.26,0,0,1-26.55,22.09c-7.12.48-13.63-2.13-19.32-6.26L192.77,230c-9.06-6.61-24.22-1.82-29.24,7.67-6.84,13,.3,23.63,10.63,31.43,15.07,11.39,30.68,20.35,50.05,20.79,26.57.6,53.32-15.74,65-39.63,11-22.47,9.89-47.28-2.5-69-4.78-8.36-9.63-16.67-14.45-25Q241.5,102.63,210.43,49.17C196,24.9,169.25,13,141.61,17.27,121.48,20.35,105,33.59,94.92,50.91q-8.1,14-16.15,28l-49.2,85.22c-4.06,7-8.51,14-12.1,21.28C3.9,213,8.29,249,32.91,269.18c18.86,15.45,45.36,21.38,68.6,12.56,16.75-6.36,29-17.74,38-33l69.13-117L184.13,89.14l-71,120.19c-3.94,6.67-7.85,13.35-11.81,20A29.61,29.61,0,0,1,90.78,240c-5.23,3-11.37,3.56-17.25,2.62a27.05,27.05,0,0,1-12.32-5.46,24.91,24.91,0,0,1-8.67-15.86c-1.16-8.75,2.49-15.84,6.72-23.16,24.53-42.49,48.48-85.37,73.62-127.51a23.86,23.86,0,0,1,20.45-12,23.46,23.46,0,0,1,13.8,4.51c4.86,3.57,7.17,8.91,10.09,14Z" transform="translate(-9.9 -16.43)"/><g class="cls-7"><path class="cls-8" d="M43.2,276.23c17.54,10,39,12.82,58.31,5.51,16.75-6.36,29-17.74,38-33l69.13-117L184.13,89.14l-71,120.19c-3.94,6.67-7.85,13.35-11.81,20A29.61,29.61,0,0,1,90.78,240c-5.23,3-11.37,3.56-17.25,2.62a27.47,27.47,0,0,1-9.15-3.3" transform="translate(-9.9 -16.43)"/></g><g class="cls-9"><path class="cls-10" d="M98.47,129.72c11.33-19.77,22.74-39.49,34.41-59a23.86,23.86,0,0,1,20.45-12,23.46,23.46,0,0,1,13.8,4.51c4.86,3.57,7.17,8.91,10.09,14l30.33,52.57H257q-23.22-40.31-46.55-80.55C196,24.9,169.25,13,141.61,17.27,121.48,20.35,105,33.59,94.92,50.91q-8.1,14-16.15,28L49.41,129.72Z" transform="translate(-9.9 -16.43)"/></g><path class="cls-11" d="M1015.2,248.62h21.73a4,4,0,0,1,2.83,1.07,3.66,3.66,0,0,1,1.13,2.76,3.37,3.37,0,0,1-1.13,2.63,4.12,4.12,0,0,1-2.83,1h-18.16l.58-1.1v12.65l-.52-.52H1034a4,4,0,0,1,2.83,1.07,3.66,3.66,0,0,1,1.13,2.76,3.37,3.37,0,0,1-1.13,2.63,4.12,4.12,0,0,1-2.83,1h-15l.32-.52v13.11l-.52-.58h18.1a3.83,3.83,0,0,1,2.83,1.13,3.63,3.63,0,0,1,1.13,2.63,3.46,3.46,0,0,1-1.13,2.66,4.05,4.05,0,0,1-2.83,1H1015.2a3.89,3.89,0,0,1-4-4v-37.5a3.89,3.89,0,0,1,4-4Z" transform="translate(-9.9 -16.43)"/><path class="cls-11" d="M1053,294a5,5,0,0,1-3.24-1.14,3.49,3.49,0,0,1-1.43-2.82v-37.5a3.89,3.89,0,0,1,4-4H1071a12,12,0,0,1,6.33,1.79,13.52,13.52,0,0,1,4.77,4.93,14.22,14.22,0,0,1,1.81,7.23,12,12,0,0,1-1,4.8,15,15,0,0,1-2.73,4.22,12.68,12.68,0,0,1-3.86,2.92l.07-1.49a10.76,10.76,0,0,1,3,2.3,11.21,11.21,0,0,1,1.89,2.85,9.94,9.94,0,0,1,.81,3.28c.17,1.08.29,2,.35,2.86a8.88,8.88,0,0,0,.39,2.07,2.3,2.3,0,0,0,1.14,1.3,3.65,3.65,0,0,1,1.78,2.43,3,3,0,0,1-.74,2.82,3.13,3.13,0,0,1-1.82,1.07,5.48,5.48,0,0,1-2.21,0,6.48,6.48,0,0,1-1.81-.61,9,9,0,0,1-2.21-1.92,9.38,9.38,0,0,1-1.78-3.4,18.43,18.43,0,0,1-.68-5.52,5.29,5.29,0,0,0-.39-2,4.55,4.55,0,0,0-2.92-2.66,8.42,8.42,0,0,0-2.6-.36h-13.1l1-1.49v14.08a4.36,4.36,0,0,1-.91,2.82A3,3,0,0,1,1053,294Zm2.53-23.23h15.12a3.29,3.29,0,0,0,2.27-1.07,8.16,8.16,0,0,0,1.82-2.92,11.26,11.26,0,0,0,.71-4.05,7.37,7.37,0,0,0-1.53-4.77,4.23,4.23,0,0,0-3.27-1.92h-15l.78-2.07v18.36Z" transform="translate(-9.9 -16.43)"/><path class="cls-11" d="M1111.67,248.62a11.28,11.28,0,0,1,6.33,1.95,14.76,14.76,0,0,1,4.77,5.25,15.89,15.89,0,0,1,0,14.73,15,15,0,0,1-4.77,5.29,11.16,11.16,0,0,1-6.33,2h-11.94l.65-1.17v13.43a4,4,0,0,1-1,2.82,3.5,3.5,0,0,1-2.72,1.14,3.44,3.44,0,0,1-2.66-1.14,4,4,0,0,1-1-2.82v-37.5a3.89,3.89,0,0,1,4-4Zm0,21.8a3.57,3.57,0,0,0,2.4-1,8.23,8.23,0,0,0,2-2.69,8.22,8.22,0,0,0-2-9.6,3.67,3.67,0,0,0-2.4-1H1099.6l.78-1.16v16.54l-.71-1Z" transform="translate(-9.9 -16.43)"/></svg>